<svg width="80" height="213" viewBox="0 0 80 213" fill="none" xmlns="http://www.w3.org/2000/svg">
<g filter="url(#filter0_d)">
<path d="M75.0335 73.3385C75.0335 73.3385 73.7213 73.1554 73.7213 71.2428C73.5785 69.3901 73.2644 67.5543 72.7818 65.7596C72.7818 65.7427 71.969 59.5397 70.8464 58.5533C69.7239 57.567 68.2835 51.7769 68.2835 51.7769C68.2835 51.7769 68.0367 48.6355 67.5336 47.9589C66.6813 46.4548 65.9505 44.8856 65.3486 43.2651C64.3461 40.9028 60.1648 39.2676 60.1648 39.2676C60.1648 39.2676 52.6056 34.8835 50.4638 33.4542C50.2683 33.3366 50.0867 33.1993 49.9204 33.0441C49.547 32.5542 47.9214 32.5447 47.9214 32.5447C47.7324 31.4119 47.6035 30.2699 47.5347 29.1235C47.5369 29.0034 47.5318 28.8833 47.5179 28.764C49.9065 27.3521 51.7057 25.1259 52.5851 22.4943C52.6254 22.3676 52.6584 22.2344 52.695 22.1077C52.8378 22.0606 52.9696 21.9842 53.0809 21.8833C53.1929 21.7824 53.2823 21.6593 53.3445 21.5219C53.4653 21.0696 53.6118 20.6246 53.7839 20.1891C54.1324 19.763 54.5484 19.3971 55.0163 19.1061C56.0759 18.2069 56.349 16.6897 56.2992 15.3115C56.2663 14.1956 56.0861 13.0693 56.1528 11.9599L56.1725 11.6802C56.1923 11.514 56.2157 11.347 56.2458 11.1874C56.4091 10.3614 56.7657 9.58154 56.9656 8.76213C57.0923 8.35858 57.1362 7.93335 57.0937 7.51245C57.0513 7.09147 56.9238 6.68352 56.7188 6.31343C56.0356 5.27728 54.6135 5.06858 53.3643 4.96387C51.9481 4.84378 50.6827 5.00048 49.7762 3.82446C49.3515 3.20987 48.8748 2.63358 48.3505 2.10217C48.1637 1.92862 46.3514 0.822901 46.3514 0.749674C44.5822 -0.0693658 42.5773 -0.222995 40.7049 0.316905C39.7654 0.59004 38.8793 1.03672 37.9267 1.26007C35.8712 1.74629 33.5059 1.21979 31.7602 2.39581C30.8464 3.13166 30.1251 4.07819 29.6579 5.15426C29.2134 6.00515 28.7623 6.85458 28.3054 7.70254C27.5006 9.06265 26.8965 10.5312 26.5099 12.0632C26.444 12.3995 26.4044 12.7402 26.3898 13.0825V13.6258C26.3854 13.7373 26.392 13.8488 26.4095 13.959C26.4293 14.0623 26.4264 14.096 26.4359 14.1655C26.4454 14.2351 26.4623 14.3918 26.4828 14.4987C26.5033 14.6056 26.5428 14.7916 26.5824 14.9381C26.5992 15.001 26.6227 15.0611 26.6424 15.1211C26.6761 15.2346 26.7157 15.3408 26.7589 15.4543C26.7823 15.5107 26.8057 15.5707 26.8321 15.6279C26.8819 15.7422 26.9383 15.8535 27.002 15.961C27.0283 16.0079 27.0488 16.0511 27.0752 16.0943C27.1682 16.2493 27.2707 16.3985 27.382 16.541C28.0952 17.4307 29.1446 17.9967 29.9208 18.8301V19.2035C29.9611 21.0606 30.4546 22.8796 31.3589 24.5024C32.2626 26.1252 33.5492 27.5027 35.1067 28.515C35.1067 28.6417 35.1235 28.7713 35.1301 28.898C35.1946 29.887 35.1828 30.8795 35.0935 31.8666C34.9573 31.7069 34.7874 31.5797 34.5963 31.4945C34.4052 31.4092 34.1972 31.3679 33.9878 31.3738C33.8442 31.3668 33.7007 31.3791 33.5616 31.4104L33.5316 31.387V31.417C32.7993 31.5971 31.8957 32.3601 31.0331 34.5284C31.0331 34.5284 28.4079 37.4867 26.4088 37.3637C24.4097 37.2407 19.349 40.4393 19.349 40.4393C19.349 40.4393 14.4121 43.6444 13.3525 46.9088C12.7608 48.76 12.0513 50.5716 11.2289 52.3327L5.12624 64.9087L4 74.8865C4.26069 76.5803 4.42765 78.2879 4.49941 79.9999C4.37639 80.6766 7.06234 86.7763 7.06234 86.7763C7.06234 86.7763 15.9338 102.364 19.5585 103.164L19.8184 102.981C19.9729 103.062 20.1377 103.123 20.3083 103.164L21.0545 102.637C21.0992 103.223 21.0801 103.813 20.9981 104.395C20.4987 105.932 21.1848 115.978 22.0577 117.947C22.9306 119.915 22.6208 145.731 22.6208 145.731L22.4978 148.01C22.5007 148.077 22.5102 148.145 22.5278 148.21L22.4978 148.75L22.5879 148.796C22.6809 149.519 22.6501 150.253 22.4978 150.965C22.2496 152.226 22.1024 153.506 22.0584 154.79C22.0584 154.79 19.5636 170.741 20.7462 173.946C21.9288 177.151 22.9349 180.662 22.9349 180.662C22.9349 180.662 24.1842 184.661 22.995 185.343C21.8058 186.026 18.4242 187.174 19.1206 188.837C19.7533 190.375 22.1558 194.501 22.5117 195.104L22.4817 195.421L21.9918 200.727C22.0709 201.428 22.2605 202.111 22.5549 202.753C22.8259 203.46 23.3209 204.059 23.9631 204.461C24.6053 204.862 25.3609 205.044 26.1159 204.978C26.4491 204.955 26.8357 204.915 27.2085 204.865C29.9632 204.404 32.6726 203.699 35.3037 202.759C35.0715 202.612 34.8592 202.436 34.671 202.236C34.4923 202.064 34.351 201.856 34.2551 201.627C34.1599 201.398 34.1115 201.152 34.1145 200.904C34.1679 199.938 32.357 195.333 31.9089 194.201C31.8357 194.037 31.8027 193.944 31.8027 193.944C31.8027 193.944 35.9268 189.633 35.2443 185.812C35.2443 185.812 30.6801 183.147 32.1827 181.685C33.6854 180.222 36.3706 176.021 36.3706 176.021C36.3706 176.021 36.4936 160.313 36.3706 157.968C36.2417 156.34 36.3186 154.703 36.6005 153.094C36.6503 152.851 36.7104 152.614 36.7741 152.381C38.8515 152.691 40.9494 152.85 43.0503 152.858C43.817 152.858 44.5961 152.858 45.3826 152.811C45.3826 153.033 45.3921 153.273 45.4126 153.53C45.5862 157.422 45.9091 164.244 46.172 166.779C46.5454 170.414 48.6075 180.208 48.6075 180.208C48.6075 180.208 44.673 182.734 49.2936 188.957C49.2936 188.957 49.2936 191.212 48.9868 191.539C48.6595 192.606 48.3959 193.692 48.1974 194.79C48.0041 195.962 47.9243 197.149 48.2377 197.765C48.9875 199.238 53.4851 199.118 53.4851 199.118L53.5949 199.098C54.4436 199.01 55.3011 199.092 56.1183 199.338C56.9356 199.585 57.6956 199.991 58.3547 200.534C60.0638 201.906 66.5502 201.304 70.0614 200.867C71.4373 200.694 72.3571 200.534 72.3571 200.534C72.4017 200.378 72.4171 200.215 72.4039 200.054C72.3673 199.192 71.6907 197.299 67.1067 195.61C67.1067 195.61 62.7959 192.712 62.8559 190.186H62.2664C62.4649 190.174 62.6633 190.174 62.8625 190.186C62.8625 190.186 61.1732 184.023 61.863 183.523C62.5528 183.023 60.487 176.193 60.487 176.193C60.487 176.193 59.3044 164.733 59.2422 163.93C59.2444 163.241 59.3491 162.556 59.5519 161.898L59.2422 155.615C59.2422 155.615 59.1821 153.526 59.2422 152.847C59.2305 152.256 59.1814 151.668 59.0957 151.084C59.0657 150.851 59.0357 150.607 59.0027 150.368C60.6189 149.958 61.6682 149.578 61.6682 149.578L61.4815 127.707C62.8537 125.042 63.1071 119.195 63.1005 115.048C63.1005 112.382 62.9804 110.41 62.9804 110.41L64.8558 107.349C64.8558 107.349 65.2885 103.687 64.6024 102.882C64.4801 102.729 64.4208 102.535 64.4362 102.341C64.4515 102.146 64.5409 101.964 64.6859 101.832C64.8155 101.729 64.9524 101.636 65.0959 101.553C65.0959 101.553 65.0761 101.523 65.0527 101.48C65.1838 101.371 65.3229 101.274 65.4694 101.187C65.4694 101.187 64.803 100.154 65.3962 99.7177C65.9556 100.098 66.4558 100.384 66.8351 100.617C66.8087 100.86 66.7816 101 66.7816 101L66.9412 100.667L67.5307 101C67.5307 101 70.4693 95.1461 70.4056 94.2835C70.3419 93.4209 72.4047 89.7859 72.4047 89.7859C72.4047 89.7859 72.6544 87.8769 73.7806 87.0766C74.9068 86.2762 74.6535 80.4862 74.6535 80.4862C74.6535 80.4862 74.9669 77.4678 75.716 76.2354C76.4651 75.003 75.0335 73.3385 75.0335 73.3385ZM18.8116 70.7668L18.868 72.1625L18.2953 71.2398L18.8116 70.7668Z" fill="url(#paint0_linear)"/>
<path d="M67.6852 98.4714L66.9654 101.537C66.9654 101.537 61.2017 98.5952 60.1626 94.8569C59.1235 91.1187 61.9017 89.6996 61.9017 89.6996L67.2722 91.9747L67.6852 98.4714Z" fill="white"/>
<path opacity="0.1" d="M67.6852 98.4714L66.9654 101.537C66.9654 101.537 61.2017 98.5952 60.1626 94.8569C59.1235 91.1187 61.9017 89.6996 61.9017 89.6996L67.2722 91.9747L67.6852 98.4714Z" fill="black"/>
<path d="M35.3385 202.775C35.3385 202.775 30.0084 204.734 26.3434 204.981C25.5987 205.044 24.8547 204.861 24.2242 204.462C23.593 204.063 23.1104 203.468 22.849 202.769C22.5612 202.129 22.3752 201.449 22.2991 200.753L22.7758 195.472L23.0291 192.66L30.8153 190.639L31.9181 194.007L32.0214 194.263C32.4644 195.39 34.2401 199.97 34.1867 200.927C34.1838 201.172 34.2306 201.415 34.3251 201.642C34.4188 201.869 34.5572 202.074 34.733 202.245C34.9109 202.446 35.1145 202.625 35.3385 202.775Z" fill="white"/>
<path d="M71.7484 200.098C71.7616 200.258 71.7455 200.42 71.7015 200.574C71.7015 200.574 60.3016 202.478 57.9693 200.574C57.3118 200.019 56.5451 199.606 55.7191 199.365C54.8931 199.122 54.0253 199.056 53.1722 199.168C53.1722 199.168 48.7611 199.288 48.0252 197.836C47.7183 197.226 47.7989 196.043 47.9886 194.877C48.1819 193.785 48.4404 192.705 48.7611 191.643L48.9376 191.503L49.9869 190.66L62.2736 190.294H62.3666C62.3065 192.806 66.5405 195.688 66.5405 195.688C71.0322 197.355 71.6949 199.238 71.7484 200.098Z" fill="white"/>
<path opacity="0.1" d="M71.7558 200.09C71.7676 200.251 71.7507 200.412 71.706 200.567C71.706 200.567 60.3091 202.471 57.9768 200.567C57.3199 200.012 56.554 199.6 55.7287 199.357C54.9027 199.116 54.0357 199.048 53.1826 199.161C53.1826 199.161 48.7685 199.281 48.0355 197.828C47.766 196.862 47.7521 195.843 47.9953 194.87C49.6941 195.04 52.3764 195.463 53.4287 196.472C55.0214 198.01 57.7198 199.54 59.3754 199.66C60.6723 199.744 68.424 199.991 71.7558 200.09Z" fill="black"/>
<path opacity="0.1" d="M35.3384 202.783C35.3384 202.783 30.0061 204.742 26.3447 204.988C25.6007 205.051 24.856 204.87 24.2255 204.47C23.5943 204.07 23.1118 203.475 22.8518 202.775C24.208 203.231 26.0899 203.711 27.0792 203.271C28.2508 202.751 32.4093 202.415 34.7416 202.272C34.9196 202.465 35.1202 202.637 35.3384 202.783Z" fill="black"/>
<path d="M43.2543 44.9164C38.8563 43.2072 33.1996 37.5607 34.6136 34.9216C34.927 34.2559 35.1137 33.5374 35.1635 32.8032C35.2543 31.8061 35.2675 30.8036 35.2038 29.8046C35.1042 28.1686 34.908 26.5401 34.6143 24.9277C34.6143 24.9277 48.3436 25.2374 47.5439 27.2599C47.3037 28.1643 47.2335 29.1053 47.3374 30.0352C47.4004 31.1878 47.5674 32.4905 47.7402 33.5933C47.9804 35.1054 48.2198 36.2588 48.2198 36.2588C48.2198 36.2588 47.3807 37.4348 46.8871 37.4978C46.3936 37.5607 49.5643 47.3497 43.2543 44.9164Z" fill="#CF6F80"/>
<path opacity="0.1" d="M32.0166 194.274L31.9133 194.387C27.809 189.423 22.845 195.61 22.845 195.61L22.7717 195.481L23.0251 192.669L30.8105 190.647L31.9133 194.015L32.0166 194.274Z" fill="black"/>
<path opacity="0.1" d="M62.3715 190.646C62.3715 190.646 59.3729 190.583 57.7743 191.996C56.1758 193.408 48.446 192.302 48.7791 191.996C48.878 191.843 48.938 191.67 48.9527 191.489L50.002 190.646L62.2887 190.28C62.3349 190.506 62.3715 190.646 62.3715 190.646Z" fill="black"/>
<path d="M37.1197 151.665C36.8963 152.217 36.7272 152.79 36.6137 153.374C36.3361 154.975 36.2585 156.605 36.3837 158.224C36.5068 160.557 36.3837 176.184 36.3837 176.184C36.3837 176.184 33.7476 180.352 32.283 181.822C30.8185 183.293 35.2809 185.93 35.2809 185.93C35.9473 189.728 31.9125 194.018 31.9125 194.018C27.8082 189.054 22.8441 195.244 22.8441 195.244C22.8441 195.244 20.1457 190.58 19.4757 188.914C18.8057 187.249 22.1119 186.096 23.2732 185.42C24.4346 184.744 23.2168 180.756 23.2168 180.756C23.2168 180.756 22.2341 177.262 21.0676 174.074C19.9011 170.885 22.3535 155.014 22.3535 155.014C22.3982 153.738 22.5417 152.467 22.7834 151.213C22.9364 150.504 22.9671 149.774 22.8734 149.054C22.8536 148.811 22.8302 148.608 22.8134 148.468C22.7965 148.329 22.7834 148.268 22.7834 148.268L22.8302 148.189L24.4961 145.084C24.4961 145.084 37.9193 149.71 37.1197 151.665Z" fill="#2A2AC0"/>
<path d="M62.3668 190.279C62.3668 190.279 59.3689 190.216 57.7697 191.612C56.1704 193.008 48.4413 191.919 48.7745 191.612C49.1077 191.305 49.0813 189.037 49.0813 189.037C44.5471 182.847 48.4149 180.335 48.4149 180.335C48.4149 180.335 46.3895 170.591 46.0226 166.976C45.7663 164.45 45.45 157.664 45.2794 153.79C45.2062 152.124 45.163 150.978 45.163 150.978L48.8675 150.232L49.3442 150.135L58.2779 148.342C58.2779 148.342 58.5246 150.008 58.6909 151.371C58.7743 151.953 58.8204 152.54 58.8307 153.128C58.7707 153.795 58.8307 155.88 58.8307 155.88L59.1339 162.133C58.9361 162.789 58.8336 163.47 58.8307 164.156C58.8907 164.952 60.0536 176.352 60.0536 176.352C60.0536 176.352 62.0754 183.155 61.3863 183.644C60.6973 184.133 62.3668 190.279 62.3668 190.279Z" fill="#2A2AC0"/>
<path opacity="0.1" d="M47.542 27.2579C47.3019 28.1622 47.2323 29.1033 47.3356 30.0332C45.4968 31.1405 43.3828 31.7067 41.2365 31.6667C39.0902 31.6266 36.9989 30.982 35.2026 29.8069C35.1038 28.1694 34.9068 26.5394 34.6124 24.9256C34.6124 24.9256 48.3417 25.2288 47.542 27.2579Z" fill="black"/>
<path d="M52.8425 19.9022C52.8447 21.1027 52.6557 22.296 52.283 23.4369C51.4482 25.9935 49.7369 28.1727 47.4508 29.5894C45.1646 31.0061 42.4516 31.5691 39.7905 31.1787C37.1302 30.7884 34.6925 29.47 32.9102 27.4564C31.1271 25.4429 30.1136 22.8639 30.0492 20.1754V19.9022C30.0492 16.8789 31.2501 13.9794 33.3876 11.8415C35.5258 9.70368 38.4249 8.50269 41.4484 8.50269C44.4719 8.50269 47.371 9.70368 49.5092 11.8415C51.6467 13.9794 52.8483 16.8789 52.8483 19.9022H52.8425Z" fill="#CF6F80"/>
<path opacity="0.1" d="M43.2543 44.9216C38.8563 43.2125 33.1996 37.5659 34.6136 34.9276C34.927 34.2617 35.1137 33.5429 35.1635 32.8084L41.1835 37.7556L44.9078 40.8106L47.7395 33.6015C47.9796 35.1136 48.2191 36.2669 48.2191 36.2669C48.2191 36.2669 47.3799 37.4429 46.8864 37.5059C46.3928 37.5689 49.5643 47.3571 43.2543 44.9216Z" fill="black"/>
<path d="M58.8221 66.7863L53.7951 151.239L47.2391 151.668L30.2615 102.7L33.0441 44.5627L33.6299 32.2797L41.1788 38.4798L44.9068 41.5348L47.822 34.1155L53.2407 38.8393L58.8221 66.7863Z" fill="#2A2AC0"/>
<path opacity="0.1" d="M37.1254 151.665C36.902 152.217 36.7321 152.79 36.6186 153.374C31.8479 152.637 27.2149 151.19 22.8733 149.08L22.7832 149.033L22.8132 148.497L22.8301 148.217L24.496 145.112C24.496 145.112 37.925 149.709 37.1254 151.665Z" fill="black"/>
<path opacity="0.1" d="M48.9556 153.38C47.7356 153.587 46.5054 153.727 45.2708 153.799C45.1976 152.133 45.1544 150.987 45.1544 150.987L48.8589 150.241L48.9556 153.38Z" fill="black"/>
<path opacity="0.1" d="M58.685 151.389C55.6637 152.244 52.5128 152.541 49.3852 152.267L49.3384 150.155L58.272 148.362C58.272 148.362 58.5181 150.009 58.685 151.389Z" fill="black"/>
<path opacity="0.1" d="M49.3225 152.651C35.6635 154.983 23.1542 148.297 23.1542 148.297L23.2743 146.031C23.2743 146.031 23.5841 120.349 22.7244 118.38C21.8647 116.411 21.1954 106.427 21.6816 104.895C22.1679 103.363 19.9059 80.3822 19.9059 80.3822L19.5398 71.0539L6.12683 65.6197L12.1234 53.1199C12.9332 51.3676 13.6296 49.5648 14.2089 47.7231C15.2516 44.4785 20.0919 41.2902 20.0919 41.2902C20.0919 41.2902 25.0559 38.1055 27.0177 38.2249C28.9794 38.3443 31.5519 35.4064 31.5519 35.4064C33.4506 30.5661 35.17 32.7578 35.17 32.7578C35.159 32.9987 35.1275 33.2382 35.077 33.474C34.4106 38.788 45.8508 55.5781 46.0141 55.8747L47.1037 82.4128L48.2065 115.997L49.3225 152.651Z" fill="black"/>
<path d="M48.9553 152.651C35.2964 154.983 22.7834 148.297 22.7834 148.297L22.9064 146.031C22.9064 146.031 23.2162 120.349 22.3535 118.38C21.4909 116.411 20.8246 106.427 21.3145 104.895C21.8043 103.363 19.5387 80.3821 19.5387 80.3821L19.1689 71.0538L5.74939 65.6028L11.7459 53.103C12.5543 51.35 13.2507 49.5471 13.8314 47.7062C14.8705 44.4615 19.7145 41.2733 19.7145 41.2733C19.7145 41.2733 24.6785 38.0886 26.6373 38.2087C28.5961 38.3288 31.1715 35.3902 31.1715 35.3902C33.0754 30.5499 35.1689 32.7416 35.1689 32.7416C35.1689 32.9716 34.969 33.0748 35.0759 33.4578C36.5405 38.6115 45.4836 55.562 45.6469 55.8585L46.7497 82.3966L47.8525 115.981L48.9553 152.651Z" fill="white"/>
<path opacity="0.1" d="M45.2681 56.6115C43.7991 55.9986 36.0166 47.1133 36.0166 47.1133V45.0908C35.7332 44.4244 34.0512 44.8308 32.6848 45.2973L33.2706 33.0142L33.937 33.5671C35.3964 38.7186 45.0975 56.3149 45.2681 56.6115Z" fill="black"/>
<path d="M45.6369 55.8682C44.1643 55.2553 36.3817 46.3699 36.3817 46.3699V44.3474C36.0983 43.6811 34.4163 44.0875 33.0499 44.5539L33.6394 32.2709L34.3058 32.8237C35.7688 37.9752 45.4736 55.5753 45.6369 55.8682Z" fill="white"/>
<path opacity="0.1" d="M23.1444 100.186C23.3274 100.186 32.6426 99.2074 32.6426 99.2074C32.6426 99.2074 38.2811 110.298 37.9149 112.996C37.5488 115.694 36.8758 118.083 34.6073 117.66C32.3387 117.237 22.3975 117.993 22.3975 117.993L23.1444 100.186Z" fill="black"/>
<path d="M22.7829 99.444C22.966 99.444 32.2812 98.465 32.2812 98.465C32.2812 98.465 37.9196 109.559 37.5535 112.254C37.1873 114.948 36.5107 117.341 34.2451 116.917C31.9795 116.494 22.0353 117.251 22.0353 117.251L22.7829 99.444Z" fill="white"/>
<path d="M29.7947 94.2367C29.7947 94.2367 38.3432 98.8309 38.5262 100.233C38.7093 101.636 34.1751 99.6203 33.1961 99.3772C32.5509 99.222 31.8948 99.1194 31.2336 99.0704L24.7003 99.2469L29.7947 94.2367Z" fill="#CF6F80"/>
<path opacity="0.1" d="M42.8881 57.1766C43.3853 57.1766 43.7873 56.7739 43.7873 56.2774C43.7873 55.7809 43.3853 55.3782 42.8881 55.3782C42.3916 55.3782 41.9889 55.7809 41.9889 56.2774C41.9889 56.7739 42.3916 57.1766 42.8881 57.1766Z" fill="black"/>
<path d="M42.8881 56.8107C43.3853 56.8107 43.7873 56.4079 43.7873 55.9114C43.7873 55.415 43.3853 55.0122 42.8881 55.0122C42.3916 55.0122 41.9889 55.415 41.9889 55.9114C41.9889 56.4079 42.3916 56.8107 42.8881 56.8107Z" fill="#3F3D56"/>
<path opacity="0.1" d="M44.5434 96.1224C45.0399 96.1224 45.4426 95.7196 45.4426 95.2231C45.4426 94.7267 45.0399 94.3239 44.5434 94.3239C44.0469 94.3239 43.6442 94.7267 43.6442 95.2231C43.6442 95.7196 44.0469 96.1224 44.5434 96.1224Z" fill="black"/>
<path d="M44.5434 95.7452C45.0399 95.7452 45.4426 95.3425 45.4426 94.846C45.4426 94.3495 45.0399 93.9468 44.5434 93.9468C44.0469 93.9468 43.6442 94.3495 43.6442 94.846C43.6442 95.3425 44.0469 95.7452 44.5434 95.7452Z" fill="#3F3D56"/>
<path opacity="0.1" d="M43.7847 76.6462C44.2812 76.6462 44.6839 76.2435 44.6839 75.747C44.6839 75.2505 44.2812 74.8478 43.7847 74.8478C43.2882 74.8478 42.8855 75.2505 42.8855 75.747C42.8855 76.2435 43.2882 76.6462 43.7847 76.6462Z" fill="black"/>
<path d="M43.7847 76.2867C44.2812 76.2867 44.6839 75.884 44.6839 75.3875C44.6839 74.891 44.2812 74.4883 43.7847 74.4883C43.2882 74.4883 42.8855 74.891 42.8855 75.3875C42.8855 75.884 43.2882 76.2867 43.7847 76.2867Z" fill="#3F3D56"/>
<path d="M64.519 98.8837C64.519 98.8837 65.1319 99.8034 64.519 100.233C63.9061 100.662 64.5791 101.701 64.5791 101.701C64.5791 101.701 63.0501 102.598 63.7231 103.404C64.396 104.21 63.9698 107.852 63.9698 107.852L62.1311 110.897C62.1311 110.897 62.2409 112.859 62.2475 115.51C62.2475 119.647 62.0044 125.464 60.6585 128.116L60.8452 149.874C60.8452 149.874 54.4057 152.226 49.0155 151.509L48.2158 116.596C48.2158 116.596 49.3816 96.7967 49.8114 92.9992C50.0633 91.0272 50.1659 89.0398 50.1183 87.0525C50.1183 87.0525 49.9352 81.1094 49.3186 78.3509C49.3186 78.3509 48.6523 66.4011 48.5864 63.0927C48.5563 61.5103 48.6398 56.8926 48.7328 52.5019C48.8361 47.7012 48.9525 43.1736 48.9525 43.1736L47.7347 33.5538C47.7347 33.5538 48.951 33.4308 49.3172 33.92C49.4812 34.0734 49.6599 34.2107 49.8503 34.33C51.9489 35.7492 59.3646 40.1149 59.3646 40.1149C59.3646 40.1149 63.469 41.7471 64.4517 44.086C65.0492 45.6911 65.7653 47.2501 66.5935 48.7498C67.0695 49.4162 67.3295 52.5473 67.3295 52.5473C67.3295 52.5473 68.742 58.311 69.8448 59.2842C70.9476 60.2574 71.7538 66.4699 71.7538 66.4699L62.0103 74.1382C62.0103 74.1382 61.1543 86.884 60.9705 87.3776C60.7867 87.8711 64.519 98.8837 64.519 98.8837Z" fill="white"/>
<path d="M64.8897 98.8844C64.8897 98.8844 65.4996 99.8042 64.8897 100.234C64.2797 100.664 64.946 101.703 64.946 101.703C64.946 101.703 63.4266 102.609 64.093 103.415C64.7593 104.221 64.3397 107.863 64.3397 107.863L62.501 110.908C62.501 110.908 62.6108 112.87 62.6211 115.521C62.6211 119.659 62.378 125.475 61.0321 128.127L61.2151 149.885C61.2151 149.885 54.7653 152.237 49.3817 151.52L48.5857 116.607C48.5857 116.607 49.7515 96.8077 50.1814 93.0102C50.4333 91.0382 50.5343 89.0508 50.4845 87.0634C50.4845 87.0634 50.3015 81.1204 49.6885 78.3619C49.6885 78.3619 49.0222 66.4121 48.9526 63.1037C48.9226 61.5213 49.009 56.9036 49.0991 52.5129C49.2023 47.7122 49.3187 43.1846 49.3187 43.1846L47.7129 33.4344C47.7129 33.4344 49.3187 33.4344 49.69 33.9309C49.8526 34.0862 50.0312 34.2237 50.2231 34.341C52.3218 35.7601 59.7425 40.1259 59.7425 40.1259C59.7425 40.1259 63.8433 41.7581 64.8267 44.097C65.4235 45.7036 66.1404 47.2626 66.9722 48.7608C67.4519 49.4271 67.7045 52.559 67.7045 52.559C67.7045 52.559 69.117 58.3227 70.2198 59.2959C71.3226 60.2691 72.1186 66.4721 72.1186 66.4721L62.3743 74.1346C62.3743 74.1346 61.5183 86.8804 61.3316 87.3739C61.1448 87.8675 64.8897 98.8844 64.8897 98.8844Z" fill="white"/>
<path opacity="0.1" d="M53.2127 46.0213L54.0914 48.5843L49.4605 53.2481C49.5638 48.451 49.6802 43.9197 49.6802 43.9197L48.0758 34.1711C48.0758 34.1711 49.6817 34.1711 50.0529 34.6676C50.2148 34.8223 50.3934 34.9586 50.586 35.074L54.5241 46.4343L53.2127 46.0213Z" fill="black"/>
<path d="M52.849 45.2825L53.7321 47.8454L49.1013 52.5092C49.2045 47.7085 49.321 43.1809 49.321 43.1809L47.71 33.43C47.71 33.43 49.321 33.43 49.6871 33.9265C49.8504 34.0808 50.0291 34.2182 50.2202 34.3365L54.1612 45.6933L52.849 45.2825Z" fill="white"/>
<path opacity="0.1" d="M52.8495 19.9022C52.8517 21.1027 52.6628 22.2959 52.2901 23.4368C52.2271 23.4466 52.1627 23.4436 52.1012 23.4282C52.0389 23.4127 51.9811 23.385 51.9306 23.3468C51.8441 20.3481 50.3679 17.5333 48.5526 15.1381C48.0429 14.415 47.4256 13.7747 46.7219 13.2393C46.0094 12.7046 45.1234 12.454 44.2366 12.5363C43.2371 12.6732 42.3547 13.3528 41.3449 13.4392C40.0122 13.549 38.8193 12.6264 37.4968 12.5795C36.9586 12.5847 36.4285 12.7045 35.9408 12.9309C35.4531 13.1574 35.0196 13.4851 34.6688 13.8925C33.9739 14.7144 33.4577 15.672 33.153 16.7044C32.628 18.2683 32.3417 19.9022 32.3036 21.5512C32.2868 22.4842 32.1967 23.6536 31.3312 23.9934C31.3956 23.3074 31.318 22.6153 31.102 21.961C30.8859 21.3067 30.5359 20.7044 30.0753 20.1922L30.0555 20.1724V19.8993C30.0555 16.876 31.2565 13.9765 33.394 11.8388C35.5314 9.70105 38.4312 8.50006 41.4547 8.50006C44.4775 8.50006 47.3773 9.70105 49.5148 11.8388C51.6523 13.9765 52.8539 16.876 52.8539 19.8993L52.8495 19.9022Z" fill="black"/>
<path d="M46.1733 1.80274C44.4422 0.988535 42.4732 0.834613 40.6367 1.36997C39.714 1.64311 38.8441 2.08613 37.9082 2.30947C35.9092 2.79277 33.5776 2.2692 31.8619 3.43863C30.9656 4.17419 30.2597 5.11449 29.8028 6.18023L28.4701 8.719C27.6799 10.0714 27.0861 11.5297 26.7075 13.0496C26.5237 13.8124 26.5046 14.6055 26.6511 15.3763C26.7976 16.147 27.1066 16.8778 27.5569 17.5201C28.2628 18.4164 29.3063 18.9795 30.0722 19.8224C30.5314 20.3349 30.8799 20.9369 31.0952 21.5903C31.3105 22.2438 31.3889 22.9348 31.3252 23.6199C32.1944 23.2867 32.2771 22.1144 32.2976 21.1814C32.335 19.5313 32.6205 17.8961 33.1441 16.3309C33.448 15.2983 33.9643 14.3405 34.6599 13.519C35.0114 13.1122 35.4449 12.7847 35.9326 12.5585C36.4203 12.3322 36.9504 12.2124 37.4879 12.2068C38.8206 12.2537 40.0164 13.1726 41.336 13.0628C42.3355 12.9793 43.2216 12.2969 44.2277 12.1636C45.1152 12.0796 46.0012 12.3303 46.713 12.8666C47.4182 13.4007 48.0355 14.0413 48.5437 14.7653C50.3626 17.1606 51.8389 19.9688 51.9253 22.974C52.3017 23.2508 52.845 22.8906 53.031 22.4614C53.1489 22.0093 53.2924 21.5643 53.4608 21.1287C53.8013 20.7071 54.2085 20.3446 54.6669 20.0559C55.7067 19.1597 55.9659 17.6505 55.9264 16.2811C55.7616 14.92 55.7455 13.5449 55.8795 12.1804C56.0362 11.3544 56.3921 10.5812 56.5825 9.76394C56.707 9.36244 56.7494 8.94022 56.7077 8.52195C56.6667 8.10375 56.5422 7.698 56.3423 7.32843C55.6759 6.29593 54.2737 6.09236 53.0508 5.9957C51.6595 5.87561 50.419 6.02938 49.5359 4.85995C49.12 4.24961 48.652 3.67654 48.1365 3.14719C47.9557 2.9751 46.1733 1.87597 46.1733 1.80274Z" fill="#512E4E"/>
<path opacity="0.1" d="M9.9569 72.0565L6.4757 65.6199L5.37292 75.5509C5.63068 77.2358 5.79396 78.9347 5.86279 80.6379C5.73977 81.3145 8.37448 87.3748 8.37448 87.3748C8.37448 87.3748 17.0796 102.879 20.6341 103.679L32.6425 95.1002L29.4579 91.0559C29.4579 91.0559 28.3551 90.626 28.079 91.0559C28.079 91.0559 22.166 80.8818 21.5531 80.1451C21.1613 79.4802 20.9892 78.7084 21.0603 77.9395C21.0603 77.9395 20.1405 76.9605 20.4474 76.0408C20.7542 75.121 18.6716 71.9327 18.6716 71.9327L20.5704 70.157L9.9569 72.0565Z" fill="black"/>
<path d="M6.65862 64.8869L5.73891 65.6192L4.63611 75.5502C4.89387 77.2351 5.05717 78.934 5.126 80.6372C5.00298 81.3138 7.64133 87.3741 7.64133 87.3741C7.64133 87.3741 16.3429 102.878 19.898 103.678L31.913 95.1002L28.7247 91.0559C28.7247 91.0559 27.622 90.6261 27.3459 91.0559C27.3459 91.0559 21.4328 80.8818 20.8192 80.1451C20.4282 79.4802 20.2561 78.7077 20.3293 77.9395C20.3293 77.9395 19.4096 76.9605 19.7164 76.0408C20.0232 75.1211 17.9377 71.9335 17.9377 71.9335L19.8365 70.1578L6.65862 64.8869Z" fill="white"/>
<path opacity="0.1" d="M63.723 103.783C64.3893 104.592 63.9698 108.227 63.9698 108.227L62.131 111.272C62.131 111.272 62.2409 113.237 62.2475 115.885L59.1558 116.851C58.8768 116.938 58.5803 116.958 58.2918 116.907C58.0033 116.857 57.7316 116.738 57.498 116.561C57.2651 116.384 57.0777 116.154 56.9517 115.889C56.8258 115.625 56.765 115.335 56.7738 115.042L57.3069 97.8484L64.5197 100.607C63.9068 101.033 64.5797 102.079 64.5797 102.079C64.5797 102.079 63.05 102.977 63.723 103.783Z" fill="black"/>
<path d="M64.0952 103.423C64.7616 104.233 64.342 107.871 64.342 107.871L62.5033 110.916C62.5033 110.916 62.6131 112.878 62.6233 115.529L59.4746 116.512C59.2007 116.597 58.9107 116.615 58.6288 116.565C58.3469 116.516 58.0804 116.4 57.8519 116.226C57.6242 116.053 57.4404 115.828 57.3173 115.569C57.1936 115.31 57.1335 115.026 57.1423 114.74L57.6784 97.4926L64.8941 100.251C64.2775 100.677 64.9505 101.72 64.9505 101.72C64.9505 101.72 63.4288 102.618 64.0952 103.423Z" fill="white"/>
<path d="M66.4824 95.2194C66.4824 95.2194 65.9925 98.3476 64.7667 98.5307C63.5409 98.7137 62.991 103.591 61.7681 103.418C60.5452 103.244 61.3551 98.8836 61.4019 98.0378C61.4488 97.1921 60.0692 93.6867 61.0988 92.8908C62.1284 92.0948 65.3862 92.8908 65.3862 92.8908L66.4824 95.2194Z" fill="#CF6F80"/>
<path opacity="0.1" d="M69.0915 71.1294L71.4032 66.4656C71.8755 68.2516 72.1831 70.0771 72.323 71.9195C72.323 73.8183 73.6088 74.005 73.6088 74.005C73.6088 74.005 75.0184 75.6709 74.2752 76.8835C73.5319 78.0962 73.2324 81.1146 73.2324 81.1146C73.2324 81.1146 73.4755 86.8746 72.3728 87.6706C71.27 88.4665 71.04 90.369 71.04 90.369C71.04 90.369 69.0146 93.9834 69.0776 94.8431C69.1405 95.7028 66.2591 101.523 66.2591 101.523C66.2591 101.523 67.6679 94.2902 59.4563 91.1657C59.4563 91.1657 59.3933 88.7104 60.0062 88.0374C60.6191 87.3645 61.5755 87.0576 60.9758 83.6563C60.376 80.2549 60.8022 76.1871 60.8022 75.3743C60.8022 74.5615 62.6417 69.4679 62.6417 69.4679L69.0915 71.1294Z" fill="black"/>
<path d="M70.0907 65.8066L72.1095 66.4729C72.584 68.2589 72.8923 70.0838 73.0322 71.9261C73.0322 73.8249 74.318 74.0116 74.318 74.0116C74.318 74.0116 75.7269 75.6775 74.9844 76.8902C74.2419 78.1028 73.9431 81.1183 73.9431 81.1183C73.9431 81.1183 74.1862 86.8783 73.0834 87.6743C71.9807 88.4702 71.7346 90.3727 71.7346 90.3727C71.7346 90.3727 69.7121 93.9871 69.7758 94.8468C69.8395 95.7065 66.9544 101.527 66.9544 101.527C66.9544 101.527 68.3669 94.2939 60.1516 91.1686C60.1516 91.1686 60.0916 88.7133 60.7045 88.0404C61.3174 87.3674 62.2737 87.0606 61.674 83.6592C61.0743 80.2579 61.5005 76.1901 61.5005 75.3773C61.5005 74.5645 63.3392 69.4709 63.3392 69.4709L70.0907 65.8066Z" fill="white"/>
<path opacity="0.1" d="M25.4972 186.688C25.4972 186.688 28.7155 184.666 30.8274 186.135C32.9392 187.604 25.4972 186.688 25.4972 186.688Z" fill="black"/>
<path opacity="0.1" d="M50.4963 180.442C51.4805 180.39 52.4625 180.562 53.3705 180.944C54.2778 181.327 55.0869 181.91 55.7364 182.651C58.1288 185.226 50.4963 180.442 50.4963 180.442Z" fill="black"/>
<path opacity="0.01" d="M54.673 19.3223C54.2132 19.6122 53.8045 19.9759 53.464 20.3987C53.2964 20.8344 53.1543 21.2794 53.0379 21.7314C52.8511 22.1649 52.3056 22.5179 51.9322 22.244C51.8457 19.2454 50.3666 16.4305 48.5505 14.0316C48.0423 13.3076 47.4243 12.6671 46.7199 12.1329C46.0059 11.5964 45.1184 11.3458 44.2302 11.4299C43.2306 11.5668 42.3512 12.2464 41.3414 12.3291C40.0087 12.4426 38.8129 11.52 37.4904 11.4731C36.9522 11.4787 36.422 11.5992 35.9351 11.8266C35.4474 12.0539 35.0146 12.3828 34.6653 12.7912C33.9696 13.6113 33.4534 14.5679 33.1495 15.5994C32.6267 17.1643 32.3426 18.799 32.3059 20.4485C32.2862 21.3777 32.199 22.5369 31.3401 22.884C31.3599 23.1301 31.3599 23.3775 31.3401 23.6236C32.2064 23.2904 32.292 22.1181 32.3125 21.1852C32.3492 19.535 32.6347 17.8998 33.159 16.3346C33.4629 15.302 33.9792 14.3442 34.6748 13.5227C35.0248 13.1159 35.4584 12.7884 35.9453 12.5621C36.433 12.3359 36.9624 12.216 37.4999 12.2105C38.8326 12.2574 40.0314 13.1764 41.3509 13.0665C42.3504 12.983 43.2365 12.3006 44.239 12.1673C45.1272 12.0832 46.0147 12.3339 46.7287 12.8703C47.4331 13.4045 48.0511 14.0451 48.5593 14.769C50.3746 17.1643 51.8545 19.9725 51.9409 22.9777C52.3173 23.2545 52.8607 22.8943 53.0467 22.4652C53.1638 22.0135 53.3066 21.5686 53.4728 21.1324C53.8134 20.7107 54.222 20.3482 54.6818 20.0597C55.7209 19.1634 55.9809 17.6542 55.9413 16.2848V16.1581C55.9523 16.7436 55.8454 17.3253 55.6279 17.8689C55.4097 18.4123 55.0853 18.9066 54.673 19.3223Z" fill="black"/>
<path opacity="0.01" d="M30.0791 19.0849C29.3131 18.2421 28.2667 17.6789 27.5638 16.7863C26.9721 15.9959 26.6338 15.0446 26.5942 14.0579C26.4895 15.2909 26.8337 16.5202 27.5638 17.5193C28.2667 18.4156 29.3131 18.9788 30.0791 19.8216C30.8143 20.6461 31.2558 21.691 31.3349 22.7931C31.3862 22.1223 31.3012 21.4481 31.0852 20.8109C30.8692 20.1737 30.5272 19.5867 30.0791 19.0849Z" fill="black"/>
<path opacity="0.01" d="M56.5818 9.02732C56.3855 9.8438 56.0355 10.62 55.8751 11.4438C55.7807 11.9937 55.7462 12.5523 55.7719 13.1097C55.7836 12.7922 55.818 12.476 55.8751 12.1636C56.0348 11.3376 56.3877 10.5644 56.5818 9.74714C56.6967 9.2968 56.7341 8.83027 56.6916 8.36755C56.6711 8.5898 56.6345 8.81035 56.5818 9.02732Z" fill="black"/>
</g>
<defs>
<filter id="filter0_d" x="0" y="0" width="79.9329" height="213" filterUnits="userSpaceOnUse" color-interpolation-filters="sRGB">
<feFlood flood-opacity="0" result="BackgroundImageFix"/>
<feColorMatrix in="SourceAlpha" type="matrix" values="0 0 0 0 0 0 0 0 0 0 0 0 0 0 0 0 0 0 127 0" result="hardAlpha"/>
<feOffset dy="4"/>
<feGaussianBlur stdDeviation="2"/>
<feComposite in2="hardAlpha" operator="out"/>
<feColorMatrix type="matrix" values="0 0 0 0 0 0 0 0 0 0 0 0 0 0 0 0 0 0 0.25 0"/>
<feBlend mode="normal" in2="BackgroundImageFix" result="effect1_dropShadow"/>
<feBlend mode="normal" in="SourceGraphic" in2="effect1_dropShadow" result="shape"/>
</filter>
<linearGradient id="paint0_linear" x1="39.966" y1="204.991" x2="39.966" y2="-2.44369e-05" gradientUnits="userSpaceOnUse">
<stop stopColor="#808080" stopOpacity="0.251"/>
<stop offset="0.54" stopColor="#808080" stopOpacity="0.122"/>
<stop offset="1" stopColor="#808080" stopOpacity="0.102"/>
</linearGradient>
</defs>
</svg>
