<svg width="90" height="212" viewBox="0 0 90 212" fill="none" xmlns="http://www.w3.org/2000/svg">
<path opacity="0.1" d="M52.0174 55.2628H41.2899V65.9902H52.0174V55.2628Z" fill="#6C63FF"/>
<path opacity="0.1" d="M52.0174 81.7311H41.2899V92.4586H52.0174V81.7311Z" fill="#6C63FF"/>
<path opacity="0.1" d="M52.0174 108.187H41.2899V118.915H52.0174V108.187Z" fill="#6C63FF"/>
<path opacity="0.1" d="M52.0174 134.639H41.2899V145.367H52.0174V134.639Z" fill="#6C63FF"/>
<path d="M84.7675 100.579C84.7675 100.579 78.5403 69.5967 80.9239 65.7423C80.9239 65.7423 81.0068 62.159 80.8675 57.5915V57.0676C81.287 57.347 81.7239 57.599 82.1766 57.822C84.3728 58.9504 86.895 59.2762 89.3067 58.7423L87.4206 56.6414C86.9206 56.1838 86.565 55.5893 86.3983 54.9327C86.3652 54.291 86.5061 53.6526 86.8054 53.0847C88.597 48.5579 88.6915 42.8662 85.2401 39.4114C82.3242 36.5097 81.6154 32.7581 78.4508 30.1058C76.1384 28.1633 74.8675 25.3154 73.6678 22.5612C72.5825 20.2644 71.707 17.8747 71.0495 15.4211C70.5969 13.4935 70.4161 11.4987 69.7935 9.61754C69.5306 8.65414 69.0755 7.75409 68.4545 6.9716C67.8344 6.18912 67.0616 5.54061 66.1836 5.06505C65.5079 4.82909 64.8522 4.54016 64.2221 4.20114C63.5066 3.5979 62.8963 2.8805 62.4155 2.07787C59.5601 -1.69446 49.9983 0.527481 45.4723 2.0588C44.242 2.44432 43.102 3.07558 42.1228 3.91428L42.1643 3.8463C42.1983 3.78992 42.2397 3.73271 42.277 3.68048C41.7812 4.08109 41.3543 4.55865 41.0102 5.0949C40.4531 6.19857 39.9573 7.332 39.5245 8.48998C38.8613 9.82895 35.1677 13.5673 36.7554 15.0721C36.8665 15.1733 36.9942 15.2549 37.1326 15.3133C37.7287 15.5614 38.3853 15.6269 39.0187 15.5015L38.9508 15.6674C38.4086 16.9951 38.1308 18.4158 38.1325 19.8501C38.1457 21.3369 38.4509 22.8066 39.0321 24.1751C39.6132 25.5434 40.458 26.7845 41.5184 27.8267C42.5797 28.8688 43.8349 29.6913 45.2137 30.2484C46.5924 30.8056 48.0674 31.085 49.5539 31.0717C50.7403 31.0725 51.9193 30.891 53.0501 30.532C53.0767 30.6754 53.0991 30.8188 53.1256 30.9623C53.1306 31.0178 53.1397 31.0734 53.1521 31.1281L52.9523 31.4075C52.9424 31.3901 52.9308 31.3735 52.9183 31.3586L46.9962 39.6345C46.0908 40.272 40.8784 44.0435 40.5841 46.8724C40.2748 49.969 39.9656 53.5937 39.9656 53.5937L39.9241 54.3706C39.6655 54.587 39.3628 54.7445 39.037 54.8324C38.7112 54.9202 38.3704 54.936 38.038 54.8796C36.1899 54.5778 36.1899 61.669 36.1899 61.669C36.1899 61.669 34.9604 62.8007 34.1172 61.8199C33.274 60.8391 31.0397 64.162 31.0397 64.162L17.0456 64.7656L16.7248 64.7847L15.9703 62.45C15.889 62.2037 15.7141 61.9998 15.4836 61.8812C15.2523 61.7635 14.9845 61.7411 14.7374 61.8199C14.6802 61.8398 14.6247 61.8638 14.5716 61.892L14.5186 61.9219L14.4207 61.9898L14.3718 62.0354C14.3445 62.0611 14.3196 62.0893 14.2964 62.1183L14.2508 62.1714L14.2284 62.1938C14.1413 62.314 14.0833 62.4533 14.0592 62.6C14.036 62.7468 14.0468 62.8969 14.0924 63.0386L14.7408 65.0417C12.0404 65.5847 9.27876 67.1144 11.5306 71.3328L0.116577 69.2244L3.80929 72.3252L22.8724 76.2592C22.6237 76.7119 22.7895 77.3677 23.5738 78.2921C26.9689 82.2791 33.1546 83.3611 35.6444 83.6405C36.3018 85.1096 37.1235 86.5008 38.0927 87.7859L37.8779 91.758C37.8779 91.758 31.5769 122.031 30.4212 123.567C31.004 122.907 31.5371 122.204 32.0171 121.466C30.1874 127.684 27.6305 136.199 26.9598 137.474C25.882 139.511 24.8813 147.754 26.1108 148.28C27.1049 148.414 28.1139 148.403 29.1054 148.246V148.928L29.0374 174.8C29.0374 174.8 29.3467 190.668 28.4977 192.181C27.6487 193.693 27.4199 196.865 27.4199 196.865C27.4199 196.865 24.0248 203.123 21.3361 205.638C21.3178 205.658 21.2971 205.676 21.2756 205.691L21.1927 205.103C21.1927 205.103 17.9593 209.184 10.8084 208.954C10.8084 208.954 6.50464 211.753 12.8869 211.904C19.2692 212.055 27.4199 211.677 27.4199 211.677C27.4199 211.677 33.1116 203.002 37.8796 204.133V210.707H39.3396V204.027C40.0162 203.581 40.5957 203.003 41.0426 202.327C41.4894 201.651 41.7945 200.891 41.9388 200.093C42.064 199.271 41.972 198.431 41.6735 197.655C41.3742 196.879 40.8784 196.194 40.2342 195.669C39.9448 195.407 39.7127 195.088 39.5518 194.733C39.3918 194.377 39.3065 193.992 39.3023 193.602L39.2501 193.647C39.241 193.51 39.2244 193.375 39.2012 193.24C38.7866 189.846 38.2585 182.841 40.1131 177.658C42.6518 170.552 43.4212 160.655 41.5723 154.762C40.9754 152.879 40.4854 150.964 40.1048 149.025C40.0592 148.777 40.022 148.546 39.9805 148.327C41.244 148.498 42.4951 148.75 43.7263 149.082C48.0077 150.262 57.373 150.481 65.3695 150.417C65.3885 150.636 65.411 150.866 65.4375 151.096C65.5801 152.696 65.8777 154.279 66.3279 155.822C67.3311 158.84 67.7912 172.143 67.7912 172.143C67.7912 172.143 69.0854 183.082 68.3799 187.533C68.0026 190.007 67.6254 192.493 67.4107 194.99V195.038C67.4107 195.038 65.2907 201.073 63.7403 204.352C63.7022 204.434 63.6574 204.517 63.6234 204.6C63.2097 204.638 62.8026 204.728 62.4121 204.868C62.4121 204.868 60.3336 209.013 58.2667 209.703C56.1998 210.393 56.8822 212.649 61.5706 211.819C66.2591 210.989 73.3386 210.31 73.3386 210.31L73.6437 206.082L75.0847 204.279L74.7074 208.499L76.2429 208.198L76.039 203.064L78.396 200.114C78.396 200.114 81.2439 197.58 77.0114 192.593V192.702C76.9658 192.631 76.9285 192.555 76.8755 192.483V192.461C76.1741 191.375 75.6161 189.348 76.6375 185.754C78.4856 179.259 79.5609 173.364 79.5609 173.364C79.5609 173.364 83.6872 157.571 78.7268 150.099H78.9457C78.4375 149.048 78.0785 147.932 77.8787 146.783C77.853 146.647 77.8306 146.507 77.8107 146.364C81.3318 146.263 84.799 145.478 88.0217 144.056C88.0001 144.025 86.2317 106.547 84.7675 100.579ZM38.1731 74.4402V74.5156L37.4186 74.5537L38.1731 74.4402ZM35.5855 74.7983C35.4612 74.8265 35.3451 74.8837 35.2464 74.9641C34.9223 75.4226 34.7183 75.9566 34.6545 76.5145L33.4772 76.2501C33.4772 76.2501 32.6481 76.0726 31.4633 75.8728L30.9012 75.3074C32.4475 75.1756 34.0542 74.9874 35.5855 74.7983Z" fill="url(#paint0_linear)"/>
<path d="M74.5241 203.104L74.0756 208.449L75.5803 208.147L75.354 202.35L74.5241 203.104Z" fill="#1D2366"/>
<path d="M40.1882 177.726C38.3742 182.894 38.8874 189.868 39.2944 193.255C39.4453 194.508 39.5847 195.27 39.5847 195.27C39.5847 195.27 36.8727 201.448 36.6464 201.682C36.42 201.916 28.6648 206.65 28.6648 206.65L23.2451 209.814C23.2451 209.814 17.7458 207.404 20.3823 206.574C20.9203 206.358 21.4062 206.028 21.8041 205.605C24.4447 203.096 27.7603 196.862 27.7603 196.862C27.7603 196.862 27.9866 193.697 28.8165 192.192C29.6464 190.687 29.3446 174.872 29.3446 174.872L29.4085 149.087V145.729L39.7248 145.804C39.7894 146.945 39.9387 148.079 40.17 149.198C40.5397 151.131 41.0198 153.041 41.6068 154.919C43.4241 160.797 42.6696 170.643 40.1882 177.726Z" fill="#FFB0B1"/>
<path opacity="0.1" d="M39.5781 195.261C39.5781 195.261 36.8661 201.44 36.6398 201.674C36.4135 201.907 28.6582 206.641 28.6582 206.641L23.2385 209.806C23.2385 209.806 17.7392 207.396 20.3757 206.566C20.9138 206.35 21.3996 206.019 21.7975 205.597L22.0314 207.245L23.8388 207.17L39.3036 193.255C39.438 194.499 39.5781 195.261 39.5781 195.261Z" fill="black"/>
<path d="M39.3868 193.613L23.8349 207.625L22.0283 207.7L21.6511 205.06C21.6511 205.06 18.4898 209.122 11.4666 208.899C11.4666 208.899 7.24993 211.687 13.4996 211.837C19.7492 211.988 27.7307 211.611 27.7307 211.611C27.7307 211.611 33.3055 202.936 37.9715 204.066V210.616H39.405V204.004C40.0716 203.556 40.6404 202.977 41.0773 202.302C41.5142 201.628 41.8102 200.873 41.947 200.081C42.0714 199.266 41.9826 198.432 41.6916 197.661C41.4006 196.889 40.9156 196.205 40.2839 195.675C40.002 195.411 39.7773 195.092 39.6231 194.737C39.468 194.382 39.3885 194 39.3868 193.613Z" fill="#1D2366"/>
<path d="M75.9557 185.783C74.9525 189.366 75.4989 191.384 76.1853 192.467V192.489C77.0658 193.825 77.6785 195.32 77.9886 196.891L78.0491 197.23L70.9729 207.547L67.1334 209.056C67.1334 209.056 60.9592 206.947 62.0868 206.344C62.6307 205.764 63.0494 205.079 63.3163 204.33C64.8253 201.068 66.9071 195.044 66.9071 195.044V194.995C67.1251 192.508 67.4725 190.032 67.8572 187.565C68.5478 183.125 67.2769 172.227 67.2769 172.227C67.2769 172.227 66.8242 158.977 65.8434 155.963C65.4006 154.431 65.1063 152.86 64.9645 151.271C64.7606 149.385 64.7158 147.831 64.7158 147.831C64.7158 147.831 68.7783 142.173 76.2351 148.284C76.8312 148.771 77.3552 149.34 77.7929 149.974C82.9415 157.299 78.7961 173.437 78.7961 173.437C78.7961 173.437 77.7623 179.307 75.9557 185.783Z" fill="#FFB0B1"/>
<path opacity="0.1" d="M78.0531 197.222L70.9769 207.539L67.1374 209.048C67.1374 209.048 60.9624 206.939 62.0899 206.336C62.6347 205.756 63.0525 205.071 63.3195 204.322C65.9336 204.299 67.2874 206.788 67.2874 206.788L70.5988 206.26C70.5988 206.26 74.9664 197.675 75.9472 197.151C76.928 196.627 76.0981 193.232 76.0981 193.232V192.368C76.1246 192.398 76.1471 192.432 76.1811 192.463V192.485C77.0615 193.822 77.6742 195.316 77.9843 196.887L78.0531 197.222Z" fill="black"/>
<path d="M67.525 207.021C67.525 207.021 65.6388 203.559 62.0257 204.837C62.0257 204.837 59.9936 208.983 57.964 209.659C55.9344 210.334 56.6084 212.593 61.2032 211.767C65.798 210.941 72.7225 210.258 72.7225 210.258L73.0243 206.037L77.6937 200.089C77.6937 200.089 80.4777 197.565 76.3356 192.597V193.461C76.3356 193.461 77.1647 196.856 76.1847 197.38C75.2048 197.904 70.8513 206.493 70.8513 206.493L67.525 207.021Z" fill="#1D2366"/>
<path opacity="0.1" d="M39.7373 145.789C39.802 146.929 39.9513 148.064 40.1826 149.184C36.6076 148.738 32.9936 148.7 29.4103 149.074V145.713L39.7373 145.789Z" fill="black"/>
<path opacity="0.1" d="M78.217 150.916C78.217 150.916 72.1821 151.21 64.9848 151.27C64.7808 149.383 64.7361 147.83 64.7361 147.83C64.7361 147.83 68.7986 142.172 76.2554 148.282C76.8515 148.77 77.3763 149.339 77.8132 149.972C77.9301 150.294 78.0652 150.609 78.217 150.916Z" fill="black"/>
<path d="M78.2091 150.227C78.2091 150.227 51.7755 151.505 43.7193 149.246C35.6631 146.987 27.6774 148.944 26.4744 148.417C25.2714 147.889 26.2481 139.681 27.3035 137.648C28.3589 135.615 34.1534 115.054 34.1534 115.054L39.7281 85.9876L45.6005 84.3693L46.0151 84.2524L56.2484 81.4335L63.7467 79.3608C63.7467 79.3608 78.6568 137.573 77.3784 141.865C76.9141 143.509 76.8395 145.238 77.1595 146.916C77.3552 148.063 77.7084 149.177 78.2091 150.227Z" fill="#1D2366"/>
<path d="M20.2932 66.1227C20.2932 66.1227 15.0128 71.7804 19.0106 74.9342C23.0085 78.088 25.6375 75.236 25.6375 75.236L20.2932 66.1227Z" fill="#C7DAF5"/>
<path opacity="0.1" d="M20.2932 66.1227C20.2932 66.1227 15.0128 71.7804 19.0106 74.9342C23.0085 78.088 25.6375 75.236 25.6375 75.236L20.2932 66.1227Z" fill="black"/>
<path d="M62.9571 28.9236C62.9571 28.9236 62.3386 29.5122 61.4067 30.3795C60.0802 31.6231 58.1136 33.4346 56.3717 34.9552C53.9574 37.0561 51.966 38.599 52.679 37.2824C53.392 35.9658 53.2593 33.6726 52.9012 31.5261C52.8746 31.3826 52.8523 31.2392 52.8257 31.0999C52.5322 29.5238 52.1434 27.9668 51.66 26.438C53.5429 23.9804 55.5658 21.6332 57.7181 19.4082C58.5215 18.6537 59.0836 18.3445 59.1176 18.8685C59.3705 20.2168 59.7809 21.5307 60.3397 22.7834C60.3588 22.8365 60.377 22.8854 60.4002 22.9376C60.8371 24.0693 61.3321 25.2309 61.7657 26.234C62.429 27.777 62.9571 28.9236 62.9571 28.9236Z" fill="#FFB0B1"/>
<path opacity="0.1" d="M60.4092 22.9419C60.0428 24.9135 59.1531 26.7507 57.8341 28.2605C56.515 29.7711 54.8145 30.8986 52.9101 31.5271C52.6092 29.8051 52.1938 28.1055 51.6665 26.439C51.6665 26.439 59.0105 16.9527 59.1233 18.8728C59.3886 20.2754 59.8197 21.6414 60.4092 22.9419Z" fill="black"/>
<path opacity="0.1" d="M52.1762 34.0613L53.1264 32.7224C53.1264 32.7224 53.7565 36.5618 56.0721 34.8688C58.3877 33.1759 58.5013 47.6143 58.5013 47.6143L56.0141 84.7788L38.052 83.701L38.561 65.743L40.594 56.6903L45.6223 43.5303L48.6136 39.1809L52.1762 34.0613Z" fill="black"/>
<path d="M58.505 47.844L56.2416 81.4483L56.0045 85.0093L45.99 84.4098L45.6127 84.3874L38.0681 83.9348L38.578 65.9727L40.6109 56.9199L45.6393 43.7599L48.6306 39.4114L52.1915 34.2711L53.1424 32.9354C53.1424 32.9354 53.7726 36.7749 56.0882 35.0819L56.1371 35.0479C58.3997 33.6128 58.505 47.844 58.505 47.844Z" fill="#1D2366"/>
<path d="M40.8632 53.7653C40.8632 53.7653 39.962 55.6514 38.1513 55.3455C36.3406 55.0396 36.3448 62.1348 36.3448 62.1348C36.3448 62.1348 35.1409 63.2665 34.3118 62.2857C33.4828 61.3049 31.294 64.6204 31.294 64.6204L17.5868 65.224C17.5868 65.224 23.6855 68.0114 22.49 76.4456C22.49 76.4456 43.198 75.163 43.8803 73.2056C44.5626 71.2481 40.8632 53.7653 40.8632 53.7653Z" fill="white"/>
<path opacity="0.03" d="M40.8632 53.7653C40.8632 53.7653 39.962 55.6514 38.1513 55.3455C36.3406 55.0396 36.3448 62.1348 36.3448 62.1348C36.3448 62.1348 35.1409 63.2665 34.3118 62.2857C33.4828 61.3049 31.294 64.6204 31.294 64.6204L17.5868 65.224C17.5868 65.224 23.6855 68.0114 22.49 76.4456C22.49 76.4456 43.198 75.163 43.8803 73.2056C44.5626 71.2481 40.8632 53.7653 40.8632 53.7653Z" fill="black"/>
<path d="M1.02844 69.6565L4.64158 72.7423L34.3907 78.992L30.7021 75.2279L1.02844 69.6565Z" fill="white"/>
<path d="M52.2372 35.2411C51.0583 37.8436 50.0269 40.5108 49.148 43.2302C48.1631 46.0399 47.3415 48.5106 47.3415 48.5106C47.3415 48.5106 45.4222 61.0107 44.4397 63.2683C43.4573 65.5258 43.9903 74.339 43.9903 74.339L40.3366 96.1007C40.3366 96.1007 38.6784 107.322 36.1232 114.025C33.5995 120.622 30.7897 123.715 30.7026 123.813C31.8343 122.282 37.9985 92.1286 37.9985 92.1286L40.0381 54.0994C40.0381 54.0994 40.3358 50.4863 40.6376 47.3971C40.9393 44.308 47.0496 40.0913 47.0496 40.0913L52.942 31.7175C53.5339 32.506 53.1384 33.8872 52.2372 35.2411Z" fill="white"/>
<path d="M36.8627 84.1223C36.8627 84.1223 28.1872 83.7451 23.9855 78.6985C19.7837 73.6518 33.6981 76.6838 33.6981 76.6838L37.3154 77.5129L36.8627 84.1223Z" fill="#FFB0B1"/>
<path opacity="0.1" d="M77.3859 141.874C76.9216 143.518 76.8461 145.246 77.167 146.924C67.703 147.596 57.5799 145.038 57.5799 145.038C55.6937 146.774 50.7259 149.33 50.7259 149.33L48.0197 115.76C46.2886 111.234 45.6096 87.5198 45.6096 87.5198C45.6096 87.5198 45.7638 86.2762 45.9869 84.4191C45.9835 84.3718 45.9902 84.3246 46.0059 84.2798C46.6808 79.0856 48.0198 69.3356 48.6764 68.019C49.5818 66.2083 45.8932 61.3913 45.8932 61.3913L47.5721 47.0764L47.776 45.3494C51.3137 43.7692 54.0265 38.7217 54.0265 38.7217L56.1083 35.0738C58.3717 33.622 58.4886 47.8532 58.4886 47.8532L56.2252 81.4568L63.7234 79.384C63.7234 79.384 78.6651 137.583 77.3859 141.874Z" fill="black"/>
<path d="M87.1011 144.193C76.7848 149.315 58.0343 144.571 58.0343 144.571C56.1481 146.306 51.1811 148.863 51.1811 148.863L48.4692 115.292C46.7414 110.766 46.0648 87.0522 46.0648 87.0522C46.0648 87.0522 48.2453 69.3579 49.1498 67.5513C49.3704 66.8367 49.3074 66.0648 48.9732 65.3957C47.4336 61.3747 46.8674 57.046 47.3209 52.7638L48.0455 46.612L48.2453 44.8884C51.7871 43.304 54.4991 38.2557 54.4991 38.2557L56.3852 34.9518L59.8549 28.8639L61.4998 25.982L61.7793 26.2307L63.9108 28.1616L66.1742 30.0478C69.1274 32.5351 74.2312 36.9201 76.8636 39.6022C79.18 41.9634 79.9113 51.148 80.1227 58.0617C80.262 62.6142 80.1791 66.1825 80.1791 66.1825C77.8444 70.0262 83.9505 100.884 83.9505 100.884C85.3691 106.851 87.1011 144.193 87.1011 144.193Z" fill="white"/>
<path opacity="0.03" d="M67.2959 38.1876C67.2959 38.1876 60.2164 51.6644 61.038 56.7873C61.8597 61.9102 64.1993 67.7071 63.071 69.0577C62.6838 69.5709 62.183 69.9879 61.6076 70.2756C61.0322 70.5633 60.398 70.7142 59.7546 70.7158C58.6229 70.7913 55.6092 72.8996 55.6092 73.126C55.6092 73.3523 52.8219 73.3523 50.328 74.4086C48.3282 75.1605 46.2605 75.716 44.1529 76.0667C44.1529 76.0667 36.9864 75.8404 36.3189 76.5194C35.6515 77.1984 34.9651 81.2609 36.3944 84.501C37.8237 87.741 39.4123 90.1587 40.6111 90.6006C41.81 91.0425 49.4226 88.4922 55.5968 87.8886C61.771 87.285 68.4741 82.3926 68.4741 82.3926C68.4741 82.3926 75.8529 79.752 77.1496 75.3131C78.4463 70.8742 75.5693 46.4727 75.5693 46.4727C75.5693 46.4727 73.3955 35.0985 67.2959 38.1876Z" fill="black"/>
<path opacity="0.03" d="M66.3924 37.0486C66.3924 37.0486 59.3129 50.5295 60.1428 55.6482C60.9727 60.767 63.3041 66.5681 62.1724 67.9261C61.786 68.4401 61.286 68.858 60.7115 69.1457C60.1369 69.4334 59.5027 69.5834 58.8602 69.5843C57.7285 69.6597 54.7148 71.7681 54.7148 71.9944C54.7148 72.2207 51.9274 72.2207 49.4343 73.2729C47.4338 74.0232 45.366 74.5778 43.2593 74.931C43.2593 74.931 36.0927 74.7047 35.4286 75.3837C34.7645 76.0627 34.0706 80.1285 35.5041 83.3653C36.9376 86.602 38.5219 89.0229 39.7208 89.4648C40.9197 89.9067 48.5323 87.3565 54.7065 86.7562C60.8806 86.1559 67.5838 81.2569 67.5838 81.2569C67.5838 81.2569 74.9626 78.6163 76.2402 74.1807C77.5179 69.7451 74.66 45.3369 74.66 45.3369C74.66 45.3369 72.492 33.9627 66.3924 37.0486Z" fill="black"/>
<path d="M67.0665 37.5095C67.0665 37.5095 59.987 50.9904 60.816 56.1091C61.6451 61.2279 63.9773 67.029 62.8489 68.3795C62.4626 68.8944 61.9626 69.3123 61.3864 69.6C60.8111 69.8876 60.176 70.0377 59.5326 70.0377C58.4009 70.1132 55.3872 72.2215 55.3872 72.442C55.3872 72.6626 52.6039 72.6684 50.1067 73.7246C48.107 74.4766 46.0393 75.0313 43.9317 75.3828C43.9317 75.3828 36.7652 75.1565 36.0978 75.8355C35.4303 76.5145 34.7439 80.5803 36.1732 83.8171C37.6025 87.0538 39.1911 89.4747 40.3899 89.9158C41.5888 90.3569 49.2014 87.8074 55.3764 87.2039C61.5514 86.6003 68.2537 81.7079 68.2537 81.7079C68.2537 81.7079 75.6326 79.0672 76.9292 74.6283C78.2259 70.1894 75.3672 45.7879 75.3672 45.7879C75.3672 45.7879 73.1619 34.4386 67.0665 37.5095Z" fill="white"/>
<path opacity="0.1" d="M66.9192 73.6592C66.9192 73.6592 61.2615 72.5275 63.2306 74.4136C65.1997 76.2998 65.1881 77.9521 67.5982 77.8759C70.0084 77.7996 66.9192 73.6592 66.9192 73.6592Z" fill="black"/>
<path opacity="0.1" d="M76.4808 114.237C76.4808 114.237 73.9239 115.968 78.8155 119.958C83.7071 123.947 76.4808 114.237 76.4808 114.237Z" fill="black"/>
<path opacity="0.1" d="M71.591 128.468C71.591 128.695 70.6857 136.767 74.0733 138.785C77.461 140.803 71.591 128.468 71.591 128.468Z" fill="black"/>
<path d="M17.8203 65.2059C15.0893 65.3004 9.19119 66.1336 12.2497 71.8385C14.9541 76.8893 19.4984 73.5133 22.0569 70.9522C21.4326 68.5653 19.9162 66.5084 17.8203 65.2059Z" fill="#FFB0B1"/>
<path d="M22.09 70.9087L22.204 70.7913L22.09 70.9087Z" fill="#FFB0B1"/>
<path opacity="0.1" d="M66.1631 30.2816C63.2663 32.2623 60.8371 33.9296 60.3595 34.2803C59.062 35.242 56.588 40.8889 54.9921 43.77C53.7211 46.0914 49.5906 46.6859 48.0327 46.8326L48.2325 45.1089C51.7744 43.5246 54.4863 38.4763 54.4863 38.4763L61.4871 26.2059L63.8972 28.3971L66.1631 30.2816Z" fill="black"/>
<path d="M66.1631 30.0553C63.2663 32.0359 60.8371 33.7032 60.3595 34.0572C59.062 35.0148 56.588 40.6617 54.9921 43.5436C53.7211 45.865 49.5906 46.4595 48.0327 46.6062L48.2325 44.8826C51.7744 43.2982 54.4863 38.2499 54.4863 38.2499L61.4871 25.9795L63.8972 28.1633C63.8972 28.1633 64.8051 28.9086 66.1631 30.0553Z" fill="#DCE7FF"/>
<path d="M60.5922 20.4521C60.5922 22.7367 59.8933 24.9665 58.5891 26.8419C57.285 28.7172 55.4369 30.1491 53.2954 30.9433C51.1539 31.7376 48.82 31.8578 46.608 31.2866C44.3961 30.7153 42.4112 29.4808 40.9222 27.7489C39.4323 26.0169 38.5088 23.8699 38.2758 21.5974C38.042 19.3248 38.5096 17.0352 39.6164 15.0365C40.7224 13.0376 42.4137 11.4254 44.464 10.4166C46.5135 9.40767 48.8225 9.05043 51.0818 9.39292C53.729 9.7903 56.1458 11.1255 57.8918 13.1555C59.6371 15.1853 60.5955 17.7749 60.5922 20.4521Z" fill="#FFB0B1"/>
<path opacity="0.1" d="M80.1101 58.0775C78.5788 57.1348 77.331 55.795 76.5002 54.1999C75.8701 52.9563 75.4514 51.5178 74.3761 50.6348C73.4069 49.8431 72.1127 49.6507 70.9056 49.2959C66.9376 48.1227 63.6097 44.5013 63.4861 40.3675C63.4256 38.4216 64.0333 36.4791 63.7581 34.5515C63.6022 33.4604 63.1686 32.4282 62.4987 31.5527C62.1662 31.134 61.8023 30.7418 61.4085 30.3795C60.8803 29.8821 60.3257 29.3987 59.8431 28.8706C59.5389 28.5431 59.2736 28.1808 59.0514 27.7928C58.8723 27.4761 58.7264 27.1403 58.6169 26.7929C57.8625 24.4847 58.5489 21.7463 57.7198 19.4141L57.6742 19.2856C57.5573 18.8564 57.3244 18.4682 56.9994 18.1639C56.6752 17.8596 56.2731 17.6512 55.837 17.5619C54.9507 17.4981 54.1929 18.2335 53.3498 18.5618C51.5805 19.2483 49.672 18.0793 48.1978 16.887C46.7237 15.6948 45.0589 14.3335 43.1844 14.5971C41.9408 14.7745 40.9625 15.6194 39.82 16.0571C39.5621 16.1569 39.296 16.2337 39.024 16.2868C39.9908 13.8742 41.7683 11.8737 44.05 10.629C46.3316 9.38443 48.9755 8.97337 51.5274 9.46659C54.0793 9.95981 56.38 11.3265 58.0332 13.3317C59.6872 15.3369 60.5901 17.8555 60.5885 20.4546C60.5885 21.2394 60.5056 22.022 60.3398 22.7893C60.358 22.8423 60.3771 22.8913 60.4003 22.9435C60.8372 24.0752 61.3322 25.2367 61.7658 26.2399L63.8965 28.1708L66.1599 30.057C69.1131 32.5443 74.2169 36.9293 76.8493 39.6114C79.1674 41.9834 79.8912 51.1663 80.1101 58.0775Z" fill="black"/>
<path d="M39.6868 9.16647C40.2265 8.06876 40.4943 6.83924 41.1385 5.79791C42.1856 4.32322 43.6995 3.24525 45.4348 2.73859C49.8671 1.2106 59.2324 -1.0072 62.0314 2.73859C62.4973 3.53783 63.0959 4.25216 63.8007 4.85109C64.4167 5.18994 65.0592 5.47887 65.7208 5.715C66.5839 6.19346 67.3408 6.84081 67.9469 7.6184C68.5538 8.39608 68.9973 9.28801 69.251 10.241C69.8587 12.1047 70.0395 14.1037 70.4847 16.023C71.1272 18.467 71.9853 20.849 73.0499 23.1406C74.223 25.8766 75.4675 28.7195 77.7309 30.6546C80.8201 33.2952 81.5024 37.0328 84.3693 39.9296C87.7644 43.3694 87.655 49.0495 85.9048 53.5539C85.6171 54.1235 85.4795 54.7569 85.5052 55.3944C85.6735 56.0444 86.02 56.6347 86.505 57.099L88.3605 59.1925C86.1469 59.6725 83.8371 59.4188 81.7801 58.4703C79.7232 57.5219 78.031 55.93 76.9582 53.9344C76.3281 52.6908 75.9094 51.2565 74.8307 50.3694C73.8648 49.5776 72.5674 49.3886 71.3644 49.0337C67.3964 47.8573 64.0684 44.2317 63.9449 40.0979C63.8852 38.1553 64.4921 36.2128 64.2168 34.2893C64.0643 33.1908 63.629 32.1511 62.9533 31.2715C61.9161 29.9176 60.3508 29.0081 59.506 27.4991C58.0766 24.9754 59.1628 21.6956 58.1331 18.9894C58.0161 18.5603 57.7832 18.172 57.4582 17.8677C57.134 17.5634 56.7319 17.3551 56.2958 17.2658C55.4095 17.2019 54.6509 17.9373 53.8027 18.2656C52.0376 18.9521 50.1291 17.7864 48.6541 16.5909C47.1792 15.3954 45.5161 14.0373 43.6374 14.3051C42.3937 14.4784 41.4196 15.3232 40.2763 15.7651C39.4314 16.0893 37.7185 16.3795 36.9798 15.6673C35.4162 14.2322 39.0343 10.5096 39.6868 9.16647Z" fill="#591D4B"/>
<path opacity="0.1" d="M78.0137 52.6917C77.3803 51.4481 76.965 50.0138 75.8863 49.1308C74.9205 48.339 73.6238 48.1467 72.4166 47.7919C68.4528 46.6187 65.1257 42.994 64.9972 38.8601C64.9375 36.9176 65.5444 34.9709 65.2724 33.0475C65.1141 31.9564 64.6788 30.9242 64.0089 30.0487C62.9684 28.6948 61.4023 27.7853 60.5616 26.2772C59.1322 23.7576 60.2184 20.4794 59.1853 17.7675C59.0676 17.3394 58.8346 16.952 58.5104 16.648C58.1871 16.3439 57.7867 16.1348 57.3522 16.0438C56.4692 15.9758 55.704 16.7187 54.8592 17.047C53.094 17.7335 51.1813 16.5645 49.7105 15.3723C48.2397 14.18 46.5683 12.8187 44.6938 13.0832C43.4502 13.2606 42.4718 14.1054 41.3327 14.5432C40.4878 14.8673 38.7716 15.1617 38.0321 14.4487C36.4784 12.9397 40.0957 9.22544 40.7449 7.88979C41.1727 6.743 41.6585 5.61877 42.2007 4.52123C42.2347 4.46485 42.2729 4.40764 42.3102 4.35541C41.8235 4.75677 41.404 5.2325 41.0666 5.76485C40.5268 6.8628 40.0418 7.98704 39.6148 9.13341C38.9623 10.4691 35.345 14.1958 36.9029 15.6931C37.6573 16.4094 39.3545 16.1159 40.1993 15.7909C41.331 15.3499 42.3193 14.505 43.5604 14.3309C45.4458 14.0631 47.1056 15.4245 48.5772 16.6167C50.0489 17.8089 51.9715 18.9779 53.7299 18.2915C54.5748 17.9598 55.3143 17.2236 56.2172 17.2916C56.6525 17.3808 57.0554 17.5892 57.3795 17.8935C57.7037 18.1978 57.9375 18.5861 58.0544 19.0152C59.0842 21.7238 57.9981 25.0012 59.4274 27.5249C60.2722 29.0073 61.8376 29.9351 62.8747 31.2964C63.5496 32.1761 63.9849 33.2158 64.1383 34.3143C64.4135 36.2378 63.8066 38.1803 63.8663 40.1228C63.9907 44.2682 67.3178 47.8814 71.2858 49.0587C72.4813 49.4135 73.7863 49.6017 74.7522 50.3943C75.8349 51.2806 76.2611 52.7158 76.8796 53.9594C77.9516 55.955 79.6437 57.5468 81.7015 58.4953C83.7585 59.4438 86.0683 59.6975 88.2819 59.2174L87.4073 58.2292C85.4854 58.2491 83.5943 57.7442 81.9395 56.7683C80.2838 55.7925 78.9266 54.383 78.0137 52.6917Z" fill="black"/>
<path opacity="0.1" d="M52.009 35.4684C50.8301 38.0717 49.7987 40.7389 48.9199 43.4574C47.8147 43.0271 46.8115 40.2854 46.8115 40.2854L52.7029 31.9042C53.3065 32.7324 52.9111 34.1095 52.009 35.4684Z" fill="black"/>
<path d="M52.2302 35.2371C51.0504 37.8395 50.0191 40.5067 49.1411 43.2261C48.0359 42.7999 47.0327 40.054 47.0327 40.054L52.9242 31.6803C53.5278 32.5061 53.1314 33.8873 52.2302 35.2371Z" fill="#DCE7FF"/>
<path d="M17.9787 73.7753L14.7121 63.4739C14.6731 63.3537 14.659 63.226 14.6698 63.1C14.6797 62.974 14.7154 62.8505 14.7734 62.7385C14.8314 62.6258 14.9119 62.5255 15.008 62.4442C15.105 62.3621 15.2178 62.3008 15.338 62.2626C15.5809 62.1864 15.8446 62.2096 16.0709 62.3273C16.2964 62.4442 16.4672 62.6465 16.5452 62.8886L19.8117 73.1783L19.4875 75.334L17.9787 73.7753Z" fill="#BE8B87"/>
<path opacity="0.1" d="M15.015 62.5777C15.2588 62.5006 15.5232 62.523 15.7496 62.6407C15.9767 62.7576 16.1476 62.9608 16.2255 63.2037L19.492 73.4934L19.2433 75.1076L19.4812 75.3564L19.8055 73.2008L16.5206 62.911C16.4427 62.6689 16.2719 62.4666 16.0464 62.3497C15.8201 62.2328 15.5564 62.2096 15.3135 62.2851C15.1095 62.3514 14.9329 62.484 14.8119 62.6623C14.8774 62.6283 14.9454 62.6001 15.015 62.5777Z" fill="white"/>
<path d="M17.9794 73.7835L19.8125 73.2031L19.5447 74.9682L19.4883 75.3563L18.9527 74.7983L17.9794 73.7835Z" fill="#EFC8C4"/>
<path d="M18.9441 74.7901C18.9756 74.7503 19.0154 74.7163 19.061 74.6923C19.0876 74.6757 19.1182 74.6666 19.1497 74.6666C19.1804 74.6666 19.2119 74.6757 19.2385 74.6923C19.2633 74.7238 19.2849 74.7578 19.3023 74.7942C19.3271 74.8357 19.3611 74.8713 19.4009 74.8979C19.4416 74.9244 19.488 74.9418 19.5361 74.9484L19.4797 75.3257L18.9441 74.7901Z" fill="#727A9C"/>
<path d="M14.6846 67.1411C14.6846 67.1411 21.2344 67.1038 19.6939 69.8911C19.3067 70.6713 18.7513 71.3561 18.0681 71.8967C17.3841 72.4364 16.5898 72.8186 15.7409 73.0143L14.6846 67.1411Z" fill="#FFB0B1"/>
<defs>
<linearGradient id="paint0_linear" x1="44.7112" y1="212" x2="44.7112" y2="2.52723e-05" gradientUnits="userSpaceOnUse">
<stop stopColor="#808080" stopOpacity="0.251"/>
<stop offset="0.54" stopColor="#808080" stopOpacity="0.122"/>
<stop offset="1" stopColor="#808080" stopOpacity="0.102"/>
</linearGradient>
</defs>
</svg>
